# xmcd
#
# Track frame offsets:
#	150
#	12262
#	24455
#	37137
#	47712
#	57658
#	69479
#	81728
#	94935
#	110157
#	123820
#	138382
#	151063
#	165072
#	176043
#	189037
#	199814
#	211695
#	223458
#	236785
#
# Disc length: 3353 seconds
#
# Revision: 0
# Processed by: cddbd v1.5.2PL0 Copyright (c) Steve Scherf et al.
# Submitted via: dBpowerAMP V4.0
#
DISCID=1f0d1714
DTITLE=Various Artist - Christmas Blues - CD1 Christmas Blues
DYEAR=1900
DGENRE=Blues
TTITLE0=Clyde McPlatter and The Drifters - White Christmas
TTITLE1=Jimmy Liggins and His Drops of Joy - I want my baby for Christmas
TTITLE2=Lightin' Hopkins - Merry Christmas
TTITLE3=Mabel Scott with Les Welch and his Orchestra - Boogie Woogie Santa Claus
TTITLE4=Lowell Fulsom - Lonesome Christmas
TTITLE5=Big Joe turner with Pete Johnson - Christmas Date Boogie
TTITLE6=Charles Brown with Johnny Moore Three Blazers - Merry Christmas Baby
TTITLE7=amos Milburn - Let's make Christmas Merry Baby
TTITLE8=Little Esther and Mel Walker - Faraway Christmas Blues
TTITLE9=Jimmy Witherspoon - Oh how I hate to see xmas coming around
TTITLE10=Jimmy Rushing witj Count Basie - Good morning blues
TTITLE11=Julia Lee and Her Boy Friends - Christmas spirit
TTITLE12=Roy Milton Solid Senders - Christmas time blues
TTITLE13=The Moonglows - Hey Santa Claus
TTITLE14=andrew Smokez Hogg - I want my baby for Christmas
TTITLE15=Sugar Chile Robinson - Christmas Boogie
TTITLE16=Eral Brown with Lowell Fulson - Best wishes
TTITLE17=J B Summers with Doc Bagby-s Orchestra - I want a present for Christmas
TTITLE18=Larry Darnell - Christmas Blues
TTITLE19=Lightin' Hopkins - Happy new year
EXTD=
EXTT0=
EXTT1=
EXTT2=
EXTT3=
EXTT4=
EXTT5=
EXTT6=
EXTT7=
EXTT8=
EXTT9=
EXTT10=
EXTT11=
EXTT12=
EXTT13=
EXTT14=
EXTT15=
EXTT16=
EXTT17=
EXTT18=
EXTT19=
PLAYORDER=
